<?xml version="1.0" encoding="utf-8"?>
<!-- Generator: Adobe Illustrator 19.1.0, SVG Export Plug-In . SVG Version: 6.00 Build 0)  -->
<svg version="1.1" id="Layer_1" xmlns="http://www.w3.org/2000/svg" xmlns:xlink="http://www.w3.org/1999/xlink" x="0px" y="0px"
	 viewBox="0 0 330.3 53.9" style="enable-background:new 0 0 330.3 53.9;" xml:space="preserve">
<style type="text/css">
	.st0{fill:none;stroke:#FFFFFF;stroke-width:3;stroke-miterlimit:10;}
	.st1{fill:#FFFFFF;}
</style>
<polygon class="st0" points="228.2,4.9 233.8,22.1 251.9,22.1 237.2,32.7 242.8,49.9 228.2,39.3 213.5,49.9 219.1,32.7 204.5,22.1 
	222.6,22.1 "/>
<path class="st1" d="M0,14.4h16.3c4.7,0,8.4,1.4,10.8,3.8c1.8,1.8,2.9,4.5,2.9,7.5v0.1c0,6.3-4.3,10-10.3,11.1l11.7,15.5h-5.3
	l-11-14.8H15H4.3v14.8H0V14.4z M16,33.8c5.7,0,9.8-2.9,9.8-7.8v-0.1c0-4.7-3.6-7.5-9.7-7.5H4.3v15.4H16z"/>
<path class="st1" d="M39.3,14.4h27.5v3.9H43.6v13h20.7v3.9H43.6v13.3H67v3.9H39.3V14.4z"/>
<path class="st1" d="M74,33.5v-0.1C74,23,81.6,13.8,93,13.8c6.4,0,10.4,1.8,14.2,5.1l-2.8,3.3c-2.9-2.6-6.2-4.3-11.6-4.3
	c-8.4,0-14.4,7.1-14.4,15.6v0.1c0,9.1,5.8,15.8,15,15.8c4.3,0,8.4-1.7,11-3.8V36H92.9v-3.9h15.7v15.2c-3.5,3.1-8.9,5.8-15.3,5.8
	C81.4,53.1,74,44.4,74,33.5z"/>
<path class="st1" d="M118.6,14.4h4.3v38h-4.3V14.4z"/>
<path class="st1" d="M131.5,46.9l2.7-3.1c4,3.6,7.8,5.4,13,5.4c5.1,0,8.5-2.7,8.5-6.5v-0.1c0-3.5-1.9-5.5-9.9-7.2
	c-8.7-1.9-12.8-4.7-12.8-11v-0.1c0-6,5.3-10.4,12.5-10.4c5.5,0,9.5,1.6,13.4,4.7l-2.5,3.3c-3.5-2.9-7.1-4.1-11-4.1
	c-4.9,0-8.1,2.7-8.1,6.1V24c0,3.6,2,5.6,10.3,7.4c8.5,1.8,12.4,4.9,12.4,10.8v0.1c0,6.5-5.4,10.8-13,10.8
	C141,53,136.1,51,131.5,46.9z"/>
<path class="st1" d="M178,18.4h-12.8v-4h29.9v4h-12.8v34.1H178V18.4z"/>
<path class="st1" d="M262.3,14.4h16.3c4.7,0,8.4,1.4,10.8,3.8c1.8,1.8,2.9,4.5,2.9,7.5v0.1c0,6.3-4.3,10-10.3,11.1l11.7,15.5h-5.3
	l-11-14.8h-0.1h-10.8v14.8h-4.3V14.4z M278.2,33.8c5.7,0,9.8-2.9,9.8-7.8v-0.1c0-4.7-3.6-7.5-9.7-7.5h-11.7v15.4H278.2z"/>
<path class="st1" d="M299.8,49.5l24.6-31.3h-23.8v-3.9h29.7v2.9l-24.7,31.3h24.7v3.9h-30.5V49.5z"/>
</svg>
