<?xml version="1.0" encoding="iso-8859-1"?>
<!-- Generator: Adobe Illustrator 17.1.0, SVG Export Plug-In . SVG Version: 6.00 Build 0)  -->
<!DOCTYPE svg PUBLIC "-//W3C//DTD SVG 1.1//EN" "http://www.w3.org/Graphics/SVG/1.1/DTD/svg11.dtd">
<svg version="1.1" id="Layer_1" xmlns="http://www.w3.org/2000/svg" xmlns:xlink="http://www.w3.org/1999/xlink" x="0px" y="0px"
	 viewBox="0 0 330.253 53.851" style="enable-background:new 0 0 330.253 53.851;" xml:space="preserve">
<g>
	<defs>
		<rect id="SVGID_1_" y="0" width="330.253" height="53.851"/>
	</defs>
	<clipPath id="SVGID_2_">
		<use xlink:href="#SVGID_1_"  style="overflow:visible;"/>
	</clipPath>
	<polygon style="clip-path:url(#SVGID_2_);fill:none;stroke:#FFFFFF;stroke-width:3;stroke-miterlimit:10;" points="228.157,4.854 
		233.751,22.069 251.852,22.069 237.208,32.709 242.801,49.924 228.157,39.284 213.513,49.924 219.106,32.709 204.462,22.069 
		222.563,22.069 	"/>
	<path style="clip-path:url(#SVGID_2_);fill:#246467;" d="M0,14.403h16.346c4.67,0,8.417,1.412,10.807,3.801
		c1.846,1.846,2.933,4.508,2.933,7.494v0.109c0,6.3-4.345,9.992-10.319,11.079l11.676,15.532h-5.268L15.152,37.646h-0.11H4.29
		v14.772H0V14.403z M15.966,33.79c5.702,0,9.775-2.932,9.775-7.82v-0.109c0-4.67-3.584-7.494-9.721-7.494H4.29V33.79H15.966z"/>
	<polygon style="clip-path:url(#SVGID_2_);fill:#246467;" points="39.265,14.403 66.744,14.403 66.744,18.313 43.555,18.313 
		43.555,31.292 64.301,31.292 64.301,35.202 43.555,35.202 43.555,48.508 67.016,48.508 67.016,52.418 39.265,52.418 	"/>
	<path style="clip-path:url(#SVGID_2_);fill:#246467;" d="M73.967,33.519V33.41c0-10.427,7.657-19.659,19.062-19.659
		c6.409,0,10.373,1.846,14.174,5.05l-2.769,3.259c-2.933-2.553-6.191-4.345-11.567-4.345c-8.419,0-14.446,7.115-14.446,15.587v0.108
		c0,9.069,5.81,15.804,15.042,15.804c4.346,0,8.364-1.684,10.971-3.802v-9.449H92.867v-3.856h15.694v15.152
		c-3.53,3.149-8.852,5.811-15.26,5.811C81.353,53.07,73.967,44.38,73.967,33.519"/>
	<rect x="118.609" y="14.403" style="clip-path:url(#SVGID_2_);fill:#246467;" width="4.29" height="38.015"/>
	<path style="clip-path:url(#SVGID_2_);fill:#246467;" d="M131.533,46.878l2.661-3.15c3.965,3.584,7.766,5.376,13.034,5.376
		c5.105,0,8.472-2.715,8.472-6.462v-0.108c0-3.531-1.901-5.54-9.884-7.223c-8.744-1.901-12.763-4.725-12.763-10.971v-0.108
		c0-5.974,5.269-10.373,12.491-10.373c5.54,0,9.504,1.575,13.361,4.671l-2.499,3.312c-3.53-2.878-7.06-4.127-10.97-4.127
		c-4.942,0-8.092,2.715-8.092,6.137v0.108c0,3.584,1.955,5.594,10.318,7.386c8.473,1.847,12.382,4.942,12.382,10.753v0.109
		c0,6.516-5.431,10.753-12.979,10.753C141.037,52.961,136.095,50.951,131.533,46.878"/>
	<polygon style="clip-path:url(#SVGID_2_);fill:#246467;" points="178.027,18.367 165.265,18.367 165.265,14.403 195.134,14.403 
		195.134,18.367 182.371,18.367 182.371,52.418 178.027,52.418 	"/>
	<path style="clip-path:url(#SVGID_2_);fill:#246467;" d="M262.26,14.403h16.346c4.67,0,8.417,1.412,10.807,3.801
		c1.846,1.846,2.933,4.508,2.933,7.494v0.109c0,6.3-4.345,9.992-10.319,11.079l11.676,15.532h-5.268l-11.023-14.772h-0.11H266.55
		v14.772h-4.29V14.403z M278.226,33.79c5.702,0,9.775-2.932,9.775-7.82v-0.109c0-4.67-3.584-7.494-9.721-7.494h-11.73V33.79H278.226
		z"/>
	<polygon style="clip-path:url(#SVGID_2_);fill:#246467;" points="299.786,49.539 324.388,18.258 300.6,18.258 300.6,14.402 
		330.253,14.402 330.253,17.28 305.597,48.561 330.253,48.561 330.253,52.417 299.786,52.417 	"/>
</g>
</svg>
